<?xml version="1.0" standalone="no"?>
<!DOCTYPE svg PUBLIC "-//W3C//DTD SVG 20010904//EN"
 "http://www.w3.org/TR/2001/REC-SVG-20010904/DTD/svg10.dtd">
<svg version="1.0" xmlns="http://www.w3.org/2000/svg"
 width="1780.000000pt" height="490.000000pt" viewBox="0 0 1780.000000 490.000000"
 preserveAspectRatio="xMidYMid meet">
<metadata>
Created by potrace 1.15, written by Peter Selinger 2001-2017
</metadata>
<g transform="translate(0.000000,490.000000) scale(0.100000,-0.100000)"
fill="#000000" stroke="none">
<path d="M1463 4885 c-47 -20 -113 -94 -113 -126 0 -14 12 -43 26 -64 37 -55
15 -63 -30 -9 -32 38 -43 45 -69 42 -25 -2 -37 -11 -52 -39 -11 -19 -30 -51
-42 -70 -13 -19 -26 -49 -29 -67 -9 -48 1 -135 21 -168 8 -16 26 -47 38 -69
32 -58 64 -59 117 -4 48 49 66 45 22 -5 -17 -19 -33 -44 -37 -55 -9 -30 11
-61 41 -61 14 0 34 -8 45 -19 20 -18 20 -19 -23 -36 -96 -39 -245 -27 -312 26
-24 19 -26 23 -12 31 25 14 20 57 -9 70 -22 10 -25 18 -25 60 0 41 -5 54 -29
79 -71 70 -159 -1 -130 -105 9 -33 8 -39 -12 -55 -29 -23 -20 -68 15 -77 65
-16 -47 -113 -131 -114 -40 0 -65 9 -57 22 3 5 3 24 0 43 -5 25 -20 43 -62 75
-31 23 -53 44 -50 48 4 3 19 -7 35 -22 20 -20 37 -27 57 -24 26 3 29 8 40 68
27 139 11 234 -47 286 -50 45 -161 104 -195 104 -45 0 -69 -35 -60 -87 l6 -38
-17 25 c-79 112 -147 154 -251 155 -71 0 -75 -1 -103 -33 -25 -27 -29 -41 -29
-87 0 -42 5 -60 20 -75 34 -34 103 -21 118 21 8 20 8 20 34 0 l26 -21 5 29 c7
33 30 45 58 30 31 -16 79 -89 79 -120 0 -15 11 -41 25 -57 15 -18 25 -42 25
-60 0 -17 10 -43 23 -59 13 -15 50 -94 82 -175 55 -139 57 -149 42 -166 -27
-29 -21 -70 14 -103 17 -16 37 -29 45 -29 7 0 80 13 161 30 545 109 1113 105
1615 -10 l122 -28 33 25 c43 33 51 66 28 109 l-18 33 58 142 c31 79 67 156 81
172 15 17 24 41 24 61 0 20 8 40 20 51 11 10 23 36 27 57 10 67 80 146 115
133 9 -4 20 -20 23 -36 l7 -29 26 20 c26 21 26 21 34 1 15 -42 84 -55 118 -21
14 14 20 33 20 64 0 62 -14 92 -52 117 -42 26 -134 22 -193 -9 -40 -20 -107
-84 -139 -132 -16 -24 -16 -24 -16 26 0 27 -5 55 -12 62 -20 20 -79 14 -117
-11 -20 -13 -55 -35 -78 -50 -93 -59 -119 -131 -99 -276 7 -48 16 -92 20 -99
12 -20 53 -14 82 13 15 14 32 25 38 24 6 0 -4 -12 -23 -27 -83 -67 -84 -68
-90 -113 -5 -40 -9 -44 -35 -47 -50 -6 -114 18 -146 55 -17 18 -30 37 -30 41
0 4 14 15 31 24 36 21 37 57 1 73 -15 7 -20 15 -15 25 3 8 8 35 11 60 7 84
-59 128 -121 80 -29 -23 -51 -81 -43 -113 4 -17 -2 -26 -24 -39 -35 -20 -38
-41 -9 -61 20 -15 20 -15 -11 -37 -74 -52 -200 -65 -295 -29 -54 20 -56 22
-39 40 9 10 30 19 46 19 21 0 32 7 40 25 12 27 -1 54 -50 108 -14 15 -20 27
-13 27 6 0 29 -18 51 -41 64 -68 101 -47 161 91 31 71 19 184 -25 237 -13 15
-29 42 -37 58 -11 23 -22 31 -46 33 -26 3 -37 -4 -69 -42 -21 -25 -42 -46 -46
-46 -14 0 -9 21 12 50 11 16 23 43 26 60 6 28 1 37 -37 77 -24 25 -58 52 -76
59 -41 18 -119 17 -160 -1z m128 -311 c36 -18 62 -73 53 -109 -9 -37 -59 -75
-100 -75 -52 0 -99 46 -99 98 0 79 75 123 146 86z"/>
<path d="M10155 3893 c-96 -25 -110 -190 -19 -231 98 -45 195 28 179 133 -10
72 -86 118 -160 98z"/>
<path d="M14023 3885 c-44 -19 -66 -66 -60 -128 6 -69 38 -99 111 -105 53 -4
57 -3 91 31 31 31 35 41 35 89 0 63 -18 94 -66 114 -41 17 -70 17 -111 -1z"/>
<path d="M17489 3891 c-142 -26 -197 -104 -207 -288 l-5 -103 -68 0 -69 0 0
-50 0 -50 70 0 70 0 0 -267 c0 -320 1 -317 -83 -321 l-57 -3 0 -44 0 -45 260
0 260 0 0 45 0 44 -77 3 c-71 3 -79 5 -90 28 -9 18 -13 97 -13 293 l0 267 105
0 105 0 0 50 0 50 -106 0 -106 0 4 108 c5 126 20 164 71 181 64 22 107 -19
107 -100 l0 -29 70 0 70 0 0 109 0 108 -47 7 c-87 12 -217 15 -264 7z"/>
<path d="M1046 3804 l-39 -46 44 -39 c24 -21 47 -38 51 -39 4 0 24 21 45 46
l38 47 -45 38 c-25 22 -47 39 -50 39 -3 0 -23 -21 -44 -46z"/>
<path d="M1493 3840 c-60 -24 -50 -91 17 -111 74 -22 152 19 135 71 -13 41
-96 62 -152 40z"/>
<path d="M1962 3814 c-23 -19 -42 -39 -42 -43 0 -4 16 -26 36 -49 39 -46 41
-46 103 7 l34 30 -38 43 c-21 24 -42 44 -45 46 -3 1 -25 -14 -48 -34z"/>
<path d="M598 3739 c-71 -41 -23 -133 60 -114 55 12 84 72 52 110 -14 17 -86
20 -112 4z"/>
<path d="M2384 3725 c-28 -42 5 -91 67 -101 45 -8 82 20 82 61 0 40 -34 65
-89 65 -35 0 -47 -5 -60 -25z"/>
<path d="M14586 3714 c-3 -9 -6 -28 -6 -42 0 -34 -31 -102 -57 -124 -10 -10
-43 -24 -73 -31 l-55 -14 -3 -52 -3 -51 70 0 70 0 3 -278 c3 -275 3 -278 28
-327 33 -64 88 -93 187 -102 178 -15 275 59 290 221 l6 66 -77 0 -76 0 0 -69
c0 -63 -2 -71 -26 -90 -15 -12 -35 -21 -45 -21 -27 0 -67 20 -76 39 -4 9 -9
139 -11 289 l-3 272 130 0 131 0 0 50 0 50 -130 0 -130 0 0 115 0 115 -69 0
c-54 0 -70 -4 -75 -16z"/>
<path d="M1352 3679 c-156 -9 -301 -28 -542 -70 -229 -39 -218 -36 -222 -67
l-3 -27 -278 -3 -278 -2 4 -1073 c3 -1053 3 -1074 24 -1165 135 -585 540 -968
1162 -1099 110 -23 149 -27 311 -27 162 0 201 4 311 27 607 128 1037 526 1152
1067 35 164 37 228 37 1251 l0 1019 -260 0 -260 0 0 25 c0 34 -8 36 -250 79
-357 62 -640 82 -908 65z m582 -271 c-22 -24 -118 -125 -212 -224 l-172 -182
2 -216 3 -216 415 439 415 440 203 0 c111 1 202 -1 202 -5 0 -3 -201 -217
-447 -477 -245 -260 -452 -478 -459 -486 -12 -13 -23 -12 -81 10 -90 32 -193
33 -246 2 l-37 -22 -45 20 c-56 25 -151 27 -214 5 -56 -20 -61 -20 -61 3 0 23
-25 45 -42 36 -7 -3 -3 2 10 11 12 9 22 23 22 30 0 8 7 14 16 14 9 0 14 6 12
13 -3 6 -20 12 -38 12 -28 0 -35 -5 -41 -25 -6 -21 -7 -22 -10 -5 -1 11 -2 26
-2 33 1 18 -22 14 -42 -8 -12 -14 -16 -28 -12 -49 4 -17 2 -33 -3 -36 -12 -8
-60 17 -84 44 -18 20 -18 21 -1 27 12 5 22 1 31 -10 14 -19 34 -14 34 9 0 23
-30 45 -61 45 -56 0 -88 62 -52 102 19 22 33 23 33 4 0 -21 49 -76 67 -76 10
0 13 5 8 18 -20 47 -17 52 15 22 23 -21 42 -30 66 -30 19 0 34 2 34 5 0 3 -14
18 -30 33 -18 16 -33 41 -36 62 l-6 35 26 -37 c31 -44 72 -68 116 -68 40 0 38
13 -5 40 -19 12 -35 23 -35 25 0 2 16 1 35 -2 23 -4 43 0 60 11 27 18 34 46
10 46 -17 0 -95 67 -95 82 0 6 14 8 35 4 49 -10 65 4 25 20 l-32 14 32 26 c23
20 30 34 28 53 -2 18 -8 25 -18 22 -39 -12 -102 -13 -96 -2 4 6 15 11 24 11
30 0 82 38 82 60 0 20 -1 20 -27 3 l-27 -18 17 25 c16 23 23 80 11 93 -3 3
-19 -9 -36 -26 -21 -23 -28 -26 -23 -12 12 32 18 75 10 75 -4 0 -15 -10 -26
-22 -18 -22 -18 -23 -19 -2 0 11 -6 28 -13 39 -13 17 -14 16 -20 -14 -10 -48
-43 -89 -103 -127 -75 -48 -72 -84 7 -84 40 0 28 -27 -18 -39 -69 -19 -133 14
-133 68 0 34 13 46 59 58 19 5 37 15 39 23 3 9 -1 11 -12 7 -9 -4 -16 -2 -16
3 0 6 18 7 43 4 48 -6 84 13 74 40 -8 20 -37 21 -37 1 0 -11 -11 -15 -36 -15
-21 0 -33 4 -29 10 3 6 18 10 31 10 33 0 27 19 -14 42 -22 12 -50 17 -92 15
-56 -2 -61 -4 -56 -22 6 -23 -26 -95 -54 -120 -10 -9 -26 -14 -37 -11 -26 9
-66 75 -68 115 -2 33 -3 33 -58 37 -41 3 -64 0 -88 -14 -44 -24 -46 -38 -7
-47 l33 -9 -35 -4 c-24 -2 -38 1 -46 13 -14 19 -34 12 -34 -10 0 -22 37 -37
78 -32 20 2 29 2 19 0 -30 -7 -14 -25 36 -40 36 -10 48 -19 53 -38 15 -61 -69
-111 -139 -81 -46 19 -48 36 -3 36 36 0 62 21 53 44 -3 8 -21 22 -39 32 -65
33 -118 97 -118 145 0 18 -2 19 -15 9 -8 -7 -15 -27 -15 -44 l0 -31 -25 30
-24 30 -1 -28 c0 -16 5 -37 10 -48 16 -29 -6 -24 -26 6 -9 14 -20 25 -24 25
-17 0 -21 -41 -6 -70 15 -32 2 -42 -22 -18 -15 15 -16 3 -1 -24 6 -11 32 -30
57 -41 l47 -22 -39 -3 c-21 -2 -43 1 -49 7 -18 18 -27 12 -27 -19 0 -28 31
-69 54 -71 6 0 -6 -9 -28 -19 -46 -21 -33 -35 26 -25 l41 7 -22 -31 c-27 -37
-59 -61 -83 -61 -24 0 -23 -15 3 -41 16 -16 30 -20 60 -17 21 2 39 2 39 1 0
-1 -17 -14 -37 -27 -30 -21 -33 -26 -20 -32 35 -13 85 6 121 46 33 37 36 38
36 16 0 -28 -35 -76 -56 -76 -8 0 -14 -4 -14 -10 0 -5 16 -10 35 -10 24 0 45
9 71 32 36 31 37 32 29 8 -4 -14 -12 -31 -17 -37 -7 -9 -6 -13 4 -13 23 0 55
28 68 60 15 35 29 35 50 -3 12 -22 12 -29 0 -51 -7 -15 -25 -29 -39 -32 -64
-12 -76 -19 -79 -47 -4 -30 21 -39 32 -12 7 19 36 20 36 1 0 -17 -47 -53 -75
-58 -17 -3 -20 2 -17 30 4 37 -20 72 -48 72 -12 0 -15 -8 -13 -37 2 -35 1 -35
-5 -8 -6 24 -13 31 -36 33 -50 6 -54 -14 -11 -53 21 -20 31 -33 23 -30 -19 7
-48 -20 -48 -44 0 -16 6 -18 44 -14 55 7 82 -8 104 -57 9 -22 22 -40 29 -40
18 0 27 58 12 77 -11 13 -8 20 24 49 20 19 46 34 57 34 23 0 27 -18 5 -26 -21
-8 -8 -24 20 -24 26 0 35 17 35 64 0 43 34 77 55 55 11 -11 12 -31 5 -109 -8
-85 -12 -97 -36 -118 -14 -13 -36 -22 -48 -20 -25 4 -35 38 -11 38 9 0 15 6
12 13 -2 6 -17 12 -33 12 -24 0 -30 -5 -32 -27 -3 -22 -9 -27 -35 -30 -33 -3
-45 -23 -33 -55 6 -14 8 -14 20 2 16 22 36 12 36 -19 0 -29 24 -50 47 -42 15
6 15 8 3 16 -25 15 0 40 60 60 30 10 56 17 58 15 6 -5 -21 -25 -58 -43 -37
-18 -52 -55 -30 -76 8 -8 14 -7 21 7 16 28 45 20 83 -25 l36 -42 43 42 c43 43
77 54 77 27 0 -8 5 -15 10 -15 6 0 10 -62 10 -165 l0 -165 -196 0 -195 0 -107
-112 c-59 -62 -150 -158 -204 -213 l-98 -100 0 993 0 992 942 0 942 0 -40 -42z
m1035 -435 l0 -218 -385 -404 c-211 -223 -384 -409 -384 -413 0 -4 89 -8 198
-8 l199 0 163 173 c90 94 174 183 187 197 l24 25 -4 -465 c-4 -434 -6 -472
-26 -565 -12 -55 -33 -133 -47 -173 -175 -523 -666 -870 -1294 -917 -133 -10
-399 24 -525 68 l-35 12 235 248 235 248 0 209 c0 116 -4 210 -8 210 -5 0
-175 -176 -378 -390 -203 -215 -373 -390 -377 -390 -16 0 -144 89 -192 133
l-46 42 398 422 398 421 47 1 c43 1 49 -2 63 -28 25 -49 62 -71 117 -71 43 0
54 4 84 34 19 19 34 41 34 50 0 21 31 20 100 -4 41 -14 50 -20 37 -25 -18 -8
-60 -3 -89 10 -29 12 -23 -44 8 -76 l27 -28 -34 -15 -34 -16 53 3 c28 1 52 0
52 -1 0 -17 -51 -68 -81 -81 -36 -16 -37 -19 -24 -38 19 -26 56 -36 91 -23 24
10 26 9 14 -5 -8 -9 -27 -23 -43 -32 -27 -14 -29 -16 -12 -25 28 -16 89 7 124
47 30 34 31 35 31 12 0 -24 -43 -77 -62 -77 -5 0 -6 -5 -3 -10 13 -21 64 -10
100 21 39 34 42 32 20 -11 -13 -24 -13 -30 -2 -30 19 0 57 38 72 72 l12 30 22
-27 c11 -15 21 -36 21 -46 0 -24 -47 -59 -80 -59 -31 0 -53 -21 -48 -46 4 -22
28 -31 28 -11 0 21 29 30 36 12 8 -20 -9 -40 -46 -55 -35 -14 -70 -6 -52 12
17 17 15 38 -5 60 -16 18 -44 25 -42 11 1 -5 0 -19 -1 -33 l-2 -25 -7 25 c-5
18 -15 26 -35 28 -46 6 -54 -13 -19 -47 28 -26 29 -30 12 -34 -23 -6 -34 -31
-24 -55 4 -10 9 -12 12 -6 2 8 19 10 46 7 55 -7 77 -19 77 -43 0 -10 5 -22 11
-25 6 -4 8 -13 5 -21 -3 -9 1 -14 14 -14 23 0 38 54 20 75 -15 18 4 50 48 77
25 15 36 18 45 9 8 -8 6 -15 -9 -25 -18 -14 -19 -15 0 -22 30 -12 51 9 56 57
7 53 15 69 40 69 27 0 31 -22 20 -123 -7 -75 -13 -95 -31 -110 -30 -24 -79
-23 -79 3 0 13 5 18 15 14 19 -8 20 10 1 25 -19 16 -56 -2 -56 -27 0 -11 -12
-21 -32 -27 -26 -8 -34 -16 -36 -38 -2 -15 1 -27 7 -27 6 0 11 5 11 11 0 25
35 2 40 -26 4 -24 11 -31 34 -33 26 -3 28 -2 17 12 -18 22 -2 39 50 55 23 7
48 15 58 19 14 5 14 3 3 -11 -8 -9 -29 -21 -47 -27 -36 -12 -50 -37 -40 -70 7
-23 25 -27 25 -6 0 32 32 25 79 -19 l47 -44 44 44 c49 50 60 54 67 25 7 -26
19 -25 33 1 14 25 -11 69 -38 69 -20 0 -60 26 -52 34 7 7 107 -27 121 -41 9
-9 9 -16 -1 -28 -11 -13 -9 -15 13 -15 25 0 37 16 37 51 0 21 20 25 38 7 9 -9
13 -7 18 5 10 27 -3 47 -36 53 -20 5 -30 12 -30 25 0 22 -32 41 -54 33 -21 -8
-21 -34 0 -34 28 0 8 -25 -22 -28 -52 -5 -71 28 -79 140 -6 88 -5 99 11 105
22 8 57 -33 50 -60 -8 -33 11 -67 39 -67 27 0 32 9 14 27 -19 19 -1 35 24 22
49 -25 68 -51 61 -85 -7 -40 3 -74 21 -74 9 0 12 6 9 15 -4 8 -1 15 5 15 6 0
11 9 11 20 0 37 89 70 127 47 15 -10 22 13 12 40 -5 14 -17 23 -31 24 l-23 0
23 11 c12 6 22 17 22 25 0 7 7 13 16 13 32 0 6 25 -29 28 -34 3 -37 1 -38 -25
0 -27 0 -28 -10 -5 -5 13 -7 28 -3 33 3 5 -4 9 -15 9 -26 0 -45 -35 -37 -71 6
-34 -8 -38 -53 -15 -42 22 -54 41 -37 55 11 10 17 8 29 -10 17 -23 37 -18 37
10 0 25 -18 37 -65 44 -65 10 -87 65 -43 109 l22 22 8 -31 c8 -30 49 -73 70
-73 6 0 7 8 3 17 -22 54 -19 58 19 25 23 -20 47 -32 66 -32 35 0 48 16 19 25
-23 8 -59 61 -59 88 0 12 10 6 36 -22 37 -42 93 -67 122 -56 14 5 11 11 -18
36 l-35 29 30 -5 c35 -6 78 13 83 36 2 10 -9 21 -28 29 -17 7 -42 27 -57 44
l-26 31 49 6 49 5 -33 13 -32 13 30 28 c34 32 44 88 13 74 -31 -13 -90 -16
-97 -5 -4 6 0 11 9 11 20 0 77 29 87 44 4 6 8 18 8 25 0 12 -3 12 -12 3 -19
-19 -30 -14 -18 7 11 21 14 74 4 84 -3 3 -19 -9 -36 -26 -21 -23 -28 -26 -22
-12 4 11 9 36 11 55 l5 35 -26 -30 c-23 -27 -25 -28 -26 -9 0 11 -7 29 -15 40
-14 19 -14 19 -15 -1 -1 -47 -58 -113 -127 -149 -56 -28 -35 -76 34 -76 l28
-1 -24 -19 c-54 -46 -161 -12 -161 50 0 32 24 53 73 64 28 7 38 26 12 26 -8 0
-15 3 -15 8 0 4 22 5 48 4 56 -4 84 16 62 43 -17 20 -27 19 -33 -5 -3 -14 -14
-20 -31 -20 -14 0 -26 5 -26 10 0 6 12 10 26 10 36 0 26 19 -23 47 -32 18 -47
20 -71 13 -17 -4 -41 -6 -52 -3 -18 5 -20 2 -16 -18 4 -16 -4 -41 -21 -73 -36
-64 -55 -76 -82 -52 -21 19 -21 28 -21 442 l0 423 398 420 c218 231 398 421
400 421 1 0 2 -98 1 -217z m-2089 -33 l0 -50 -130 0 -130 0 0 50 0 50 130 0
130 0 0 -50z m-2 -157 c-36 -75 -61 -93 -134 -93 -39 0 -51 5 -80 34 -60 60
-52 66 92 66 69 0 124 -3 122 -7z m-12 -188 c9 -14 13 -33 9 -44 -9 -30 12
-61 40 -61 25 0 33 14 15 25 -17 10 -11 25 9 25 26 0 81 -47 81 -69 0 -9 -5
-22 -11 -28 -8 -8 -8 -17 1 -32 9 -18 8 -23 -12 -30 -20 -7 -24 -5 -28 18 -4
21 -12 27 -38 29 -24 2 -32 -1 -32 -12 0 -9 7 -16 15 -16 22 0 18 -28 -5 -35
-24 -8 -77 19 -84 42 -9 33 -18 191 -12 202 12 18 35 12 52 -14z m585 -146
l49 -21 0 -435 c0 -408 -1 -435 -17 -429 -38 15 -152 23 -203 15 -53 -8 -68
-15 -223 -97 -129 -69 -117 -111 -117 396 l0 438 58 18 c31 10 89 34 127 54
96 48 192 82 238 82 21 0 61 -10 88 -21z m436 -47 c70 -33 154 -66 186 -72
l57 -11 0 -441 0 -441 -51 6 c-30 4 -72 19 -103 37 -28 17 -80 45 -116 63 -60
30 -72 32 -165 32 -62 0 -109 -5 -122 -13 l-23 -13 0 439 c0 406 1 440 18 454
28 25 43 28 119 24 63 -3 86 -10 200 -64z m-997 -592 c0 -38 -4 -50 -15 -50
-9 0 -20 -11 -26 -24 -6 -13 -22 -29 -35 -35 -17 -7 -24 -19 -24 -39 0 -38 17
-52 62 -52 l38 0 0 -88 0 -88 -286 -302 c-157 -166 -289 -302 -293 -302 -11 0
-78 120 -111 199 l-30 73 24 28 c33 40 688 730 692 730 2 0 4 -22 4 -50z
m1450 -510 l0 -50 -130 0 -130 0 0 50 0 50 130 0 130 0 0 -50z m-7 -179 c-16
-62 -118 -100 -181 -67 -26 14 -62 60 -62 81 0 3 56 5 124 5 117 0 124 -1 119
-19z"/>
<path d="M1603 3372 c-9 -16 -26 -33 -37 -38 -27 -12 -32 -50 -10 -75 14 -15
31 -19 86 -19 l69 0 -6 58 c-4 31 -13 67 -21 80 -21 32 -61 29 -81 -6z"/>
<path d="M2430 3380 c-11 -11 -20 -23 -20 -28 0 -4 -10 -12 -22 -17 -30 -13
-37 -64 -12 -82 19 -14 154 -19 154 -5 0 4 -5 34 -10 67 -13 82 -48 107 -90
65z"/>
<path d="M2212 3158 c-7 -7 -12 -17 -12 -23 0 -7 -11 -17 -24 -23 -30 -14 -39
-47 -18 -71 13 -14 36 -20 90 -24 65 -5 73 -4 68 11 -2 9 -7 40 -11 67 -4 28
-12 56 -17 63 -13 15 -60 16 -76 0z"/>
<path d="M2008 2939 c-10 -5 -18 -19 -18 -29 0 -13 -7 -20 -18 -20 -41 0 -57
-54 -24 -83 14 -12 37 -17 86 -17 l68 0 -7 63 c-10 85 -39 114 -87 86z"/>
<path d="M1782 2708 c-6 -6 -12 -17 -12 -23 0 -7 -11 -17 -25 -23 -18 -8 -25
-19 -25 -40 0 -43 16 -52 97 -52 l73 0 -6 48 c-10 71 -24 97 -59 100 -17 2
-36 -3 -43 -10z"/>
<path d="M198 1879 c-10 -5 -18 -18 -18 -29 0 -12 -8 -20 -22 -22 -33 -5 -47
-51 -23 -78 15 -16 30 -20 88 -20 l70 0 -7 63 c-10 85 -40 114 -88 86z"/>
<path d="M2828 2949 c-10 -5 -18 -18 -18 -28 0 -12 -10 -21 -25 -25 -33 -8
-44 -50 -20 -76 15 -16 31 -20 88 -20 l70 0 -7 63 c-9 81 -42 113 -88 86z"/>
<path d="M2632 2738 c-7 -7 -12 -20 -12 -30 0 -11 -7 -18 -20 -18 -27 0 -46
-40 -31 -67 11 -21 55 -33 124 -33 35 0 37 2 37 33 -1 48 -17 109 -32 118 -19
13 -52 11 -66 -3z"/>
<path d="M2442 2528 c-7 -7 -12 -18 -12 -25 0 -7 -6 -13 -13 -13 -18 0 -47
-32 -47 -53 0 -34 29 -47 102 -47 l71 0 -7 62 c-4 35 -12 68 -18 75 -13 16
-60 17 -76 1z"/>
<path d="M2258 2329 c-10 -5 -18 -18 -18 -29 0 -12 -8 -20 -22 -22 -14 -2 -26
-14 -33 -32 -15 -44 19 -66 102 -66 l66 0 -7 63 c-10 85 -40 114 -88 86z"/>
<path d="M2828 2099 c-10 -5 -18 -19 -18 -29 0 -11 -6 -20 -12 -20 -40 -1 -58
-50 -29 -79 17 -17 34 -21 92 -21 62 0 70 2 65 18 -3 9 -8 39 -12 65 -9 69
-41 93 -86 66z"/>
<path d="M1322 1358 c-7 -7 -12 -20 -12 -30 0 -11 -7 -18 -18 -18 -39 0 -57
-55 -27 -80 8 -7 47 -15 87 -18 l71 -5 -7 64 c-4 35 -15 72 -23 82 -19 20 -54
22 -71 5z"/>
<path d="M1103 1112 c-9 -16 -26 -33 -37 -38 -24 -10 -33 -56 -14 -71 7 -6 46
-13 87 -16 l74 -6 -7 46 c-3 25 -6 54 -6 64 0 51 -71 66 -97 21z"/>
<path d="M913 909 c-12 -4 -24 -16 -27 -27 -4 -10 -18 -24 -31 -30 -18 -8 -25
-19 -25 -40 0 -43 16 -52 98 -52 l74 0 -7 53 c-13 92 -32 115 -82 96z"/>
<path d="M692 674 c-12 -8 -22 -21 -22 -27 0 -7 -10 -17 -22 -22 -30 -13 -37
-64 -12 -82 19 -14 154 -19 154 -5 0 4 -5 34 -10 67 -13 80 -41 102 -88 69z"/>
<path d="M1352 474 c-12 -8 -22 -21 -22 -27 0 -7 -10 -17 -22 -22 -30 -14 -40
-48 -22 -74 13 -18 25 -21 90 -21 67 0 75 2 70 18 -3 9 -8 38 -12 65 -4 32
-13 52 -27 62 -26 19 -28 19 -55 -1z"/>
<path d="M1315 2388 c-39 -14 -40 -15 -25 -33 8 -10 11 -38 8 -85 -4 -71 -4
-71 22 -68 23 3 25 6 22 46 -5 53 11 55 27 1 11 -35 15 -40 38 -37 15 2 29 9
31 17 3 8 0 11 -6 7 -7 -4 -14 4 -18 21 -4 15 -11 33 -16 40 -5 7 -5 14 2 18
18 11 12 63 -9 75 -24 12 -37 12 -76 -2z"/>
<path d="M1376 2094 c-18 -25 -18 -25 -33 -5 -8 12 -25 21 -38 21 -26 0 -41
-15 -25 -25 13 -8 13 -111 0 -136 -8 -14 -7 -19 2 -18 19 1 55 17 41 18 -9 1
-13 17 -13 49 l0 47 20 -25 c19 -25 19 -25 35 -5 15 19 16 18 12 -27 -5 -48
-5 -48 27 -48 l31 0 0 90 c0 83 -1 90 -20 90 -11 0 -28 -12 -39 -26z"/>
<path d="M1025 2008 l-30 -9 0 -100 c0 -54 1 -99 2 -99 2 0 27 12 57 27 63 30
85 68 64 106 -7 12 -11 33 -9 46 5 39 -24 49 -84 29z"/>
<path d="M1042 1742 c-24 -13 -29 -21 -21 -29 7 -7 10 -36 7 -77 -2 -36 -3
-66 -2 -66 13 0 92 41 103 53 18 23 25 90 12 116 -14 26 -53 27 -99 3z"/>
<path d="M1652 2123 c-19 -7 -42 -58 -42 -93 0 -81 77 -133 123 -82 24 27 21
33 -9 20 -22 -11 -28 -10 -40 7 -19 26 -18 99 2 116 14 12 20 9 40 -16 27 -35
37 -30 28 14 -5 21 -11 30 -20 27 -7 -3 -16 -1 -19 4 -6 10 -41 12 -63 3z"/>
<path d="M1920 1971 c0 -44 -3 -86 -6 -94 -3 -10 5 -18 27 -26 18 -6 33 -11
35 -11 1 0 0 19 -2 43 l-4 42 14 -30 c9 -16 15 -37 16 -45 0 -21 20 -40 42
-40 19 0 25 26 7 32 -5 2 -10 32 -11 68 0 36 -5 73 -10 82 -9 18 -77 58 -98
58 -6 0 -10 -31 -10 -79z"/>
<path d="M1883 1783 c3 -5 -6 -39 -18 -78 -24 -72 -24 -85 0 -85 9 0 11 7 7
22 -4 18 -2 20 19 15 13 -4 27 -7 30 -7 12 0 17 -40 6 -40 -19 -1 36 -29 57
-30 13 0 16 4 9 13 -5 6 -20 49 -33 95 -14 52 -30 86 -41 92 -21 12 -42 13
-36 3z"/>
<path d="M682 1554 c-12 -8 -22 -21 -22 -27 0 -7 -10 -17 -22 -22 -30 -13 -37
-64 -12 -82 11 -8 46 -13 87 -13 l69 0 -6 28 c-3 15 -8 46 -11 70 -9 58 -41
76 -83 46z"/>
<path d="M496 1354 c-9 -8 -16 -21 -16 -29 0 -7 -11 -16 -25 -19 -21 -5 -25
-12 -25 -41 0 -44 20 -55 105 -55 58 0 66 2 62 18 -3 9 -8 38 -12 64 -9 71
-51 100 -89 62z"/>
<path d="M312 1158 c-7 -7 -12 -20 -12 -30 0 -11 -7 -18 -20 -18 -27 0 -46
-40 -31 -67 7 -15 25 -22 63 -26 95 -12 98 -11 98 26 -1 48 -17 109 -32 118
-19 13 -52 11 -66 -3z"/>
<path d="M9368 3517 c-60 -17 -113 -58 -149 -115 l-29 -46 0 83 0 83 -82 -6
c-46 -4 -116 -9 -155 -12 l-73 -6 0 -44 0 -44 49 0 c83 0 81 7 81 -293 0 -310
1 -307 -86 -307 l-54 0 0 -45 0 -45 230 0 230 0 0 45 0 45 -39 0 c-72 0 -73 5
-69 246 l3 212 30 44 c70 100 213 112 272 21 16 -23 18 -57 21 -251 4 -260 1
-272 -68 -272 l-40 0 0 -45 0 -45 225 0 225 0 0 45 0 45 -48 0 c-89 0 -86 -9
-92 297 -5 288 -7 299 -62 350 -63 59 -219 88 -320 60z"/>
<path d="M11650 3519 c-156 -31 -256 -146 -281 -324 -29 -208 43 -386 183
-454 162 -79 409 -51 498 57 32 39 60 110 60 154 l0 28 -84 0 -84 0 -6 -43
c-15 -99 -70 -141 -175 -135 -115 6 -167 69 -178 213 l-6 75 278 0 278 0 -8
91 c-12 164 -55 249 -150 301 -80 43 -214 59 -325 37z m190 -111 c43 -30 70
-83 77 -152 l6 -56 -173 0 -173 0 6 55 c7 70 42 133 87 157 50 26 128 24 170
-4z"/>
<path d="M12737 3516 c-56 -16 -112 -58 -147 -111 l-25 -38 -3 78 -3 77 -79
-6 c-44 -3 -116 -9 -160 -12 l-80 -6 0 -44 0 -44 54 0 c87 0 86 2 86 -300 0
-302 1 -300 -86 -300 l-54 0 0 -45 0 -45 260 0 260 0 0 45 0 45 -68 0 c-110 0
-107 -7 -107 227 l0 198 30 60 c34 68 70 98 116 98 40 0 65 -28 74 -83 l7 -40
79 0 79 0 0 119 c0 104 -2 120 -17 126 -36 14 -168 15 -216 1z"/>
<path d="M13285 3516 c-139 -34 -205 -108 -205 -226 0 -69 14 -101 62 -146 43
-41 80 -59 212 -105 132 -46 166 -73 166 -135 0 -31 -6 -48 -26 -68 -45 -45
-134 -59 -200 -31 -41 17 -73 78 -74 138 l0 37 -70 0 -70 0 0 -119 0 -118 59
-17 c32 -9 99 -20 147 -25 216 -19 365 35 420 153 39 84 29 183 -23 239 -37
38 -57 48 -198 97 -65 22 -132 49 -150 60 -60 37 -72 105 -26 151 26 25 37 29
88 29 97 0 143 -45 143 -142 0 -28 0 -28 70 -28 l70 0 0 115 0 114 -37 10
c-114 31 -272 38 -358 17z"/>
<path d="M16540 3517 c-72 -17 -127 -47 -172 -94 -139 -144 -142 -468 -5 -620
126 -139 436 -143 572 -8 20 21 52 68 69 104 30 64 31 69 31 211 0 130 -3 151
-24 205 -33 81 -107 155 -186 184 -74 28 -207 36 -285 18z m167 -98 c44 -16
81 -58 100 -113 14 -40 18 -83 18 -201 0 -141 -2 -153 -27 -207 -34 -73 -72
-98 -150 -98 -47 0 -62 5 -89 27 -57 49 -73 100 -77 259 -6 203 21 288 103
325 46 21 82 24 122 8z"/>
<path d="M8000 3513 c-25 -1 -82 -5 -127 -9 l-83 -6 0 -44 0 -44 54 0 c37 0
58 -5 67 -16 11 -13 14 -74 17 -268 1 -138 5 -266 8 -284 6 -37 53 -96 95
-118 43 -22 146 -32 221 -23 106 13 184 60 222 134 16 30 16 29 16 -42 l0 -73
155 0 155 0 0 45 0 45 -48 0 c-85 0 -82 -13 -82 374 l0 338 -97 -6 c-54 -4
-131 -9 -170 -12 l-73 -6 0 -44 0 -44 55 0 c43 0 56 -4 65 -19 16 -32 13 -378
-5 -437 -16 -53 -53 -96 -98 -113 -43 -17 -125 -13 -158 6 -56 33 -59 52 -59
377 l0 296 -42 -2 c-24 -1 -63 -3 -88 -5z"/>
<path d="M10170 3513 c-25 -1 -82 -5 -127 -9 l-83 -6 0 -44 0 -44 54 0 c38 0
58 -5 67 -17 11 -13 14 -72 14 -285 0 -310 4 -298 -92 -298 l-53 0 0 -45 0
-45 240 0 240 0 0 45 0 45 -49 0 c-83 0 -81 -9 -81 377 l0 333 -42 -2 c-24 -1
-63 -3 -88 -5z"/>
<path d="M14055 3513 c-22 -1 -77 -5 -122 -9 l-83 -6 0 -44 0 -44 55 0 c43 0
56 -4 65 -19 6 -12 10 -121 10 -284 0 -305 2 -297 -88 -297 l-52 0 0 -45 0
-45 240 0 240 0 0 45 0 45 -49 0 c-84 0 -81 -16 -81 371 l0 339 -47 -2 c-27
-1 -66 -3 -88 -5z"/>
<path d="M5275 1784 c-775 -949 -1421 -1739 -1433 -1755 l-24 -30 123 3 123 3
1428 1748 c785 961 1428 1750 1428 1752 0 3 -53 5 -117 5 l-118 0 -1410 -1726z"/>
<path d="M10450 3461 c0 -35 3 -39 29 -44 17 -4 35 -17 42 -29 7 -13 69 -169
139 -348 l126 -325 100 -3 100 -3 129 338 c72 186 138 346 148 355 9 10 26 18
37 18 17 0 20 7 20 40 l0 40 -175 0 -175 0 0 -40 0 -40 43 0 c78 0 82 -10 41
-125 -113 -324 -139 -393 -145 -382 -16 28 -159 457 -159 475 0 22 24 32 78
32 31 0 32 2 32 40 l0 40 -205 0 -205 0 0 -39z"/>
<path d="M15110 3460 c0 -28 4 -40 15 -40 8 0 25 -5 39 -11 28 -13 46 -49 199
-415 l106 -252 -45 -112 c-24 -61 -50 -120 -56 -130 -17 -26 -52 -40 -103 -40
l-45 0 0 -40 0 -40 220 0 220 0 0 40 0 40 -48 0 c-63 0 -96 22 -87 59 13 54
360 866 377 883 10 10 29 18 43 18 23 0 25 4 25 40 l0 40 -175 0 -175 0 0 -40
c0 -40 0 -40 39 -40 44 0 71 -8 71 -21 0 -4 -37 -101 -81 -215 l-81 -206 -74
198 c-41 109 -74 205 -74 215 0 20 20 29 66 29 33 0 34 1 34 40 l0 40 -205 0
-205 0 0 -40z"/>
<path d="M11665 2293 c-64 -13 -95 -54 -95 -129 0 -39 5 -51 34 -80 30 -30 40
-34 86 -34 46 0 56 4 86 34 29 29 34 41 34 80 0 51 -20 100 -48 114 -23 12
-73 20 -97 15z"/>
<path d="M8101 1919 c-63 -11 -144 -49 -185 -87 -66 -61 -93 -178 -64 -273 16
-54 69 -113 128 -142 l49 -25 -45 -12 c-51 -15 -94 -59 -94 -97 0 -34 49 -80
95 -89 l38 -7 -57 -18 c-126 -39 -185 -111 -172 -212 11 -94 80 -161 198 -193
72 -19 284 -18 367 1 80 19 156 60 187 100 48 63 51 184 7 244 -49 66 -105 86
-291 106 -152 16 -182 27 -182 67 0 36 30 50 155 73 150 27 222 69 270 157 40
73 41 172 3 241 l-27 47 70 0 69 0 0 55 0 55 -42 -1 c-24 0 -77 -4 -118 -8
-52 -5 -90 -4 -124 5 -71 19 -172 24 -235 13z m158 -114 c42 -36 54 -82 49
-184 -5 -98 -23 -143 -68 -166 -60 -31 -128 -6 -163 59 -28 54 -31 192 -4 246
35 71 128 94 186 45z m55 -704 c49 -31 70 -72 63 -130 -15 -131 -240 -180
-345 -75 -33 33 -34 37 -30 94 5 68 22 93 83 122 57 27 177 21 229 -11z"/>
<path d="M9210 1920 c-64 -14 -130 -59 -167 -114 l-33 -48 0 82 0 82 -52 -6
c-29 -3 -101 -9 -160 -12 l-108 -7 0 -43 0 -44 54 0 c89 0 86 10 86 -300 0
-307 3 -294 -85 -305 l-55 -7 0 -39 0 -39 260 0 260 0 0 40 0 40 -43 0 c-52 0
-108 15 -119 32 -4 7 -8 99 -8 204 0 235 13 283 90 337 59 41 114 13 127 -65
l6 -38 78 0 79 0 0 119 c0 93 -3 120 -14 124 -29 11 -153 15 -196 7z"/>
<path d="M9789 1920 c-191 -34 -299 -182 -299 -410 0 -248 121 -393 346 -415
177 -17 328 56 390 189 35 77 47 149 42 261 -10 190 -80 301 -225 355 -60 22
-187 33 -254 20z m176 -118 c70 -40 108 -208 88 -385 -21 -177 -92 -249 -214
-217 -96 26 -132 110 -132 310 0 190 32 274 118 305 45 17 95 12 140 -13z"/>
<path d="M10883 1920 c-23 -5 -54 -15 -70 -24 -30 -16 -94 -79 -111 -111 -9
-16 -11 -4 -12 59 l0 78 -52 -6 c-29 -3 -101 -9 -160 -12 l-108 -7 0 -43 0
-44 48 0 c90 0 87 10 87 -298 0 -210 -3 -272 -13 -285 -8 -10 -38 -19 -73 -23
l-59 -7 0 -38 0 -39 230 0 230 0 0 40 c0 39 -1 40 -40 46 -66 11 -70 23 -70
224 0 204 11 258 62 307 41 40 76 53 137 53 34 0 56 -6 75 -21 53 -41 56 -59
56 -303 0 -251 1 -249 -70 -261 -39 -7 -40 -8 -40 -46 l0 -39 225 0 225 0 0
39 0 39 -50 7 c-82 11 -80 4 -80 274 0 284 -7 319 -75 379 -24 21 -62 44 -84
51 -56 16 -157 22 -208 11z"/>
<path d="M12523 1920 c-82 -17 -150 -66 -186 -135 -16 -30 -16 -29 -17 54 l0
83 -52 -6 c-29 -3 -99 -8 -155 -12 l-103 -7 0 -43 0 -43 52 -3 c77 -4 78 -6
78 -303 0 -293 1 -290 -85 -300 l-55 -7 0 -39 0 -39 230 0 230 0 0 39 c0 39 0
40 -45 46 -24 4 -50 14 -57 23 -10 11 -13 66 -13 211 0 179 2 200 21 242 31
66 82 102 153 107 70 5 113 -14 138 -61 16 -28 18 -61 18 -258 0 -169 -3 -230
-13 -241 -7 -9 -33 -19 -57 -23 -45 -6 -45 -7 -45 -46 l0 -39 225 0 225 0 0
39 0 39 -50 7 c-80 11 -80 11 -80 295 0 239 -1 246 -25 297 -30 66 -89 106
-179 122 -70 12 -93 12 -153 1z"/>
<path d="M13400 1919 c-117 -20 -222 -100 -248 -187 -15 -48 -15 -125 -2 -173
14 -50 71 -113 130 -142 l49 -25 -45 -12 c-50 -14 -94 -58 -94 -94 0 -37 37
-75 88 -90 l47 -13 -42 -7 c-62 -11 -143 -64 -170 -111 -38 -68 -25 -164 30
-223 30 -33 101 -67 168 -82 75 -17 316 -8 384 13 73 23 137 70 164 117 20 35
23 52 19 115 -4 82 -20 113 -78 152 -45 31 -87 42 -210 53 -139 14 -198 28
-210 50 -22 41 19 73 105 85 238 33 349 128 348 296 0 53 -5 77 -26 113 l-26
46 70 0 69 0 0 55 0 55 -42 -1 c-24 0 -77 -4 -118 -8 -52 -5 -90 -4 -124 5
-71 19 -172 24 -236 13z m159 -115 c18 -15 35 -42 42 -67 15 -57 7 -194 -15
-235 -36 -69 -132 -80 -187 -21 -72 77 -59 291 20 334 43 24 105 19 140 -11z
m45 -700 c70 -36 95 -118 56 -182 -41 -66 -141 -96 -246 -73 -77 18 -114 62
-114 136 0 46 5 60 30 88 16 19 44 39 62 45 52 17 167 10 212 -14z"/>
<path d="M14304 1915 c-77 -17 -115 -36 -169 -86 -79 -73 -122 -209 -112 -359
12 -181 87 -298 226 -351 73 -29 238 -32 323 -6 109 33 179 112 194 220 l6 47
-85 0 c-94 0 -89 4 -102 -72 -9 -57 -47 -95 -108 -108 -135 -31 -225 51 -235
213 l-5 77 273 0 273 0 -5 103 c-9 200 -88 297 -268 326 -83 14 -130 13 -206
-4z m187 -107 c47 -26 76 -80 85 -160 l7 -58 -172 0 -171 0 0 44 c0 49 15 99
41 137 41 59 140 77 210 37z"/>
<path d="M15401 1915 c-64 -18 -111 -51 -152 -108 l-29 -40 0 78 0 77 -52 -6
c-29 -3 -101 -9 -160 -12 l-108 -7 0 -43 0 -44 54 0 c38 0 58 -5 67 -17 20
-23 20 -542 1 -566 -8 -10 -38 -19 -73 -23 l-59 -7 0 -38 0 -39 230 0 230 0 0
40 c0 39 -1 40 -41 46 -68 11 -71 24 -67 246 3 174 6 197 25 233 39 75 89 105
169 105 59 0 97 -21 118 -64 13 -28 16 -72 16 -264 0 -172 -3 -232 -12 -240
-7 -5 -32 -13 -55 -17 -42 -7 -43 -8 -43 -46 l0 -39 225 0 225 0 0 39 0 39
-49 7 c-28 4 -56 14 -63 22 -10 12 -14 84 -18 277 -5 286 -6 291 -71 354 -61
59 -205 86 -308 57z"/>
<path d="M11710 1914 c-8 -1 -68 -6 -132 -9 l-118 -7 0 -44 0 -44 48 0 c81 0
77 14 80 -291 3 -313 6 -303 -84 -315 l-54 -6 0 -39 0 -39 240 0 240 0 0 39 0
39 -55 7 c-39 4 -58 12 -65 25 -6 11 -10 150 -10 354 l0 336 -37 -1 c-21 -1
-45 -3 -53 -5z"/>
</g>
</svg>
